<svg width="18" height="18" viewBox="0 0 18 18" fill="none" xmlns="http://www.w3.org/2000/svg">
<mask id="path-1-outside-1_243_117" maskUnits="userSpaceOnUse" x="-0.0198975" y="0" width="18" height="18" fill="black">
<rect fill="white" x="-0.0198975" width="18" height="18"/>
<path d="M9.00114 1.67498C9.0213 1.87315 8.96189 2.07122 8.83597 2.22562C8.71004 2.38003 8.52792 2.47813 8.32964 2.49836C7.10416 2.62574 5.93986 3.09753 4.97163 3.85909C4.00341 4.62064 3.27088 5.64079 2.85892 6.80134C2.44697 7.96188 2.37244 9.21534 2.64397 10.4165C2.9155 11.6176 3.52197 12.7173 4.39314 13.5881C5.2643 14.4589 6.3645 15.0652 7.56626 15.3368C8.76803 15.6083 10.0222 15.534 11.1834 15.1224C12.3447 14.7109 13.3655 13.9789 14.1276 13.0113C14.8897 12.0437 15.3619 10.8801 15.4895 9.65532C15.4982 9.55607 15.5265 9.45953 15.5728 9.37132C15.6192 9.28312 15.6826 9.205 15.7594 9.14152C15.8362 9.07804 15.9249 9.03046 16.0203 9.00156C16.1157 8.97266 16.2159 8.96301 16.3151 8.97317C16.4142 8.98334 16.5104 9.01311 16.5979 9.06076C16.6854 9.10841 16.7626 9.17298 16.825 9.25073C16.8873 9.32847 16.9335 9.41782 16.961 9.5136C16.9884 9.60937 16.9966 9.70964 16.9849 9.80857C16.8283 11.3161 16.2475 12.7484 15.3098 13.9395C14.3721 15.1305 13.1159 16.0317 11.6868 16.5384C10.2576 17.0452 8.71406 17.1368 7.23494 16.8027C5.75583 16.4685 4.40174 15.7223 3.32958 14.6505C2.25743 13.5787 1.51112 12.2252 1.17713 10.7468C0.843147 9.26845 0.935165 7.72575 1.44252 6.2975C1.94988 4.86926 2.8518 3.61394 4.04377 2.67704C5.23574 1.74013 6.66895 1.15999 8.17731 1.00386C8.37559 0.983704 8.57377 1.04308 8.72826 1.16894C8.88274 1.29479 8.9809 1.47681 9.00114 1.67498ZM10.0234 1.60887C10.0464 1.5128 10.088 1.42219 10.1461 1.34224C10.2041 1.26229 10.2773 1.19455 10.3616 1.14292C10.4458 1.09128 10.5394 1.05675 10.637 1.04132C10.7346 1.02588 10.8343 1.02983 10.9304 1.05294C11.3093 1.14309 11.6791 1.26129 12.0359 1.40353C12.216 1.48073 12.3588 1.62518 12.4339 1.80609C12.509 1.987 12.5104 2.19006 12.4379 2.37201C12.3653 2.55396 12.2246 2.7004 12.0456 2.78013C11.8666 2.85987 11.6635 2.86659 11.4796 2.79886C11.1867 2.68289 10.886 2.58783 10.5796 2.51438C10.3859 2.46782 10.2186 2.34629 10.1145 2.17649C10.0104 2.00669 9.97797 1.80253 10.0244 1.60887H10.0234ZM16.585 5.94912C16.5112 5.76396 16.3669 5.61566 16.1837 5.53686C16.0006 5.45806 15.7936 5.4552 15.6083 5.52892C15.423 5.60264 15.2747 5.7469 15.1958 5.92996C15.117 6.11302 15.1141 6.31989 15.1879 6.50505C15.3031 6.79554 15.3993 7.09604 15.4735 7.40456C15.52 7.59836 15.6417 7.76575 15.8117 7.86991C15.8959 7.92149 15.9894 7.95599 16.0869 7.97144C16.1844 7.9869 16.284 7.983 16.38 7.95998C16.476 7.93696 16.5666 7.89527 16.6465 7.83728C16.7264 7.77929 16.794 7.70614 16.8456 7.62201C16.8972 7.53788 16.9318 7.44441 16.9472 7.34695C16.9627 7.24948 16.9588 7.14993 16.9358 7.05397C16.8455 6.67775 16.7283 6.30852 16.585 5.94912ZM13.3037 2.89602C13.4346 2.74581 13.6199 2.65373 13.8187 2.64002C14.0176 2.6263 14.2137 2.69209 14.364 2.8229C14.6717 3.09034 14.9594 3.38083 15.224 3.69135C15.3531 3.84317 15.4167 4.04007 15.4006 4.23872C15.3845 4.43737 15.2902 4.62151 15.1383 4.75062C14.9864 4.87973 14.7894 4.94324 14.5906 4.92718C14.3918 4.91112 14.2076 4.8168 14.0784 4.66498C13.8626 4.41138 13.6281 4.17432 13.3769 3.95579C13.2266 3.82494 13.1344 3.63978 13.1207 3.44105C13.107 3.24231 13.1728 3.04626 13.3037 2.89602ZM9.00414 4.72307C9.00414 4.52383 8.92495 4.33274 8.78398 4.19186C8.64302 4.05097 8.45183 3.97182 8.25247 3.97182C8.05312 3.97182 7.86193 4.05097 7.72096 4.19186C7.58 4.33274 7.5008 4.52383 7.5008 4.72307V9.73145C7.5008 10.1471 7.83755 10.4827 8.25247 10.4827H11.2592C11.4585 10.4827 11.6497 10.4036 11.7907 10.2627C11.9316 10.1218 12.0108 9.93069 12.0108 9.73145C12.0108 9.5322 11.9316 9.34112 11.7907 9.20023C11.6497 9.05934 11.4585 8.98019 11.2592 8.98019H9.00414V4.72307Z"/>
</mask>
<path d="M9.00114 1.67498C9.0213 1.87315 8.96189 2.07122 8.83597 2.22562C8.71004 2.38003 8.52792 2.47813 8.32964 2.49836C7.10416 2.62574 5.93986 3.09753 4.97163 3.85909C4.00341 4.62064 3.27088 5.64079 2.85892 6.80134C2.44697 7.96188 2.37244 9.21534 2.64397 10.4165C2.9155 11.6176 3.52197 12.7173 4.39314 13.5881C5.2643 14.4589 6.3645 15.0652 7.56626 15.3368C8.76803 15.6083 10.0222 15.534 11.1834 15.1224C12.3447 14.7109 13.3655 13.9789 14.1276 13.0113C14.8897 12.0437 15.3619 10.8801 15.4895 9.65532C15.4982 9.55607 15.5265 9.45953 15.5728 9.37132C15.6192 9.28312 15.6826 9.205 15.7594 9.14152C15.8362 9.07804 15.9249 9.03046 16.0203 9.00156C16.1157 8.97266 16.2159 8.96301 16.3151 8.97317C16.4142 8.98334 16.5104 9.01311 16.5979 9.06076C16.6854 9.10841 16.7626 9.17298 16.825 9.25073C16.8873 9.32847 16.9335 9.41782 16.961 9.5136C16.9884 9.60937 16.9966 9.70964 16.9849 9.80857C16.8283 11.3161 16.2475 12.7484 15.3098 13.9395C14.3721 15.1305 13.1159 16.0317 11.6868 16.5384C10.2576 17.0452 8.71406 17.1368 7.23494 16.8027C5.75583 16.4685 4.40174 15.7223 3.32958 14.6505C2.25743 13.5787 1.51112 12.2252 1.17713 10.7468C0.843147 9.26845 0.935165 7.72575 1.44252 6.2975C1.94988 4.86926 2.8518 3.61394 4.04377 2.67704C5.23574 1.74013 6.66895 1.15999 8.17731 1.00386C8.37559 0.983704 8.57377 1.04308 8.72826 1.16894C8.88274 1.29479 8.9809 1.47681 9.00114 1.67498ZM10.0234 1.60887C10.0464 1.5128 10.088 1.42219 10.1461 1.34224C10.2041 1.26229 10.2773 1.19455 10.3616 1.14292C10.4458 1.09128 10.5394 1.05675 10.637 1.04132C10.7346 1.02588 10.8343 1.02983 10.9304 1.05294C11.3093 1.14309 11.6791 1.26129 12.0359 1.40353C12.216 1.48073 12.3588 1.62518 12.4339 1.80609C12.509 1.987 12.5104 2.19006 12.4379 2.37201C12.3653 2.55396 12.2246 2.7004 12.0456 2.78013C11.8666 2.85987 11.6635 2.86659 11.4796 2.79886C11.1867 2.68289 10.886 2.58783 10.5796 2.51438C10.3859 2.46782 10.2186 2.34629 10.1145 2.17649C10.0104 2.00669 9.97797 1.80253 10.0244 1.60887H10.0234ZM16.585 5.94912C16.5112 5.76396 16.3669 5.61566 16.1837 5.53686C16.0006 5.45806 15.7936 5.4552 15.6083 5.52892C15.423 5.60264 15.2747 5.7469 15.1958 5.92996C15.117 6.11302 15.1141 6.31989 15.1879 6.50505C15.3031 6.79554 15.3993 7.09604 15.4735 7.40456C15.52 7.59836 15.6417 7.76575 15.8117 7.86991C15.8959 7.92149 15.9894 7.95599 16.0869 7.97144C16.1844 7.9869 16.284 7.983 16.38 7.95998C16.476 7.93696 16.5666 7.89527 16.6465 7.83728C16.7264 7.77929 16.794 7.70614 16.8456 7.62201C16.8972 7.53788 16.9318 7.44441 16.9472 7.34695C16.9627 7.24948 16.9588 7.14993 16.9358 7.05397C16.8455 6.67775 16.7283 6.30852 16.585 5.94912ZM13.3037 2.89602C13.4346 2.74581 13.6199 2.65373 13.8187 2.64002C14.0176 2.6263 14.2137 2.69209 14.364 2.8229C14.6717 3.09034 14.9594 3.38083 15.224 3.69135C15.3531 3.84317 15.4167 4.04007 15.4006 4.23872C15.3845 4.43737 15.2902 4.62151 15.1383 4.75062C14.9864 4.87973 14.7894 4.94324 14.5906 4.92718C14.3918 4.91112 14.2076 4.8168 14.0784 4.66498C13.8626 4.41138 13.6281 4.17432 13.3769 3.95579C13.2266 3.82494 13.1344 3.63978 13.1207 3.44105C13.107 3.24231 13.1728 3.04626 13.3037 2.89602ZM9.00414 4.72307C9.00414 4.52383 8.92495 4.33274 8.78398 4.19186C8.64302 4.05097 8.45183 3.97182 8.25247 3.97182C8.05312 3.97182 7.86193 4.05097 7.72096 4.19186C7.58 4.33274 7.5008 4.52383 7.5008 4.72307V9.73145C7.5008 10.1471 7.83755 10.4827 8.25247 10.4827H11.2592C11.4585 10.4827 11.6497 10.4036 11.7907 10.2627C11.9316 10.1218 12.0108 9.93069 12.0108 9.73145C12.0108 9.5322 11.9316 9.34112 11.7907 9.20023C11.6497 9.05934 11.4585 8.98019 11.2592 8.98019H9.00414V4.72307Z" fill="white"/>
<path d="M9.00114 1.67498C9.0213 1.87315 8.96189 2.07122 8.83597 2.22562C8.71004 2.38003 8.52792 2.47813 8.32964 2.49836C7.10416 2.62574 5.93986 3.09753 4.97163 3.85909C4.00341 4.62064 3.27088 5.64079 2.85892 6.80134C2.44697 7.96188 2.37244 9.21534 2.64397 10.4165C2.9155 11.6176 3.52197 12.7173 4.39314 13.5881C5.2643 14.4589 6.3645 15.0652 7.56626 15.3368C8.76803 15.6083 10.0222 15.534 11.1834 15.1224C12.3447 14.7109 13.3655 13.9789 14.1276 13.0113C14.8897 12.0437 15.3619 10.8801 15.4895 9.65532C15.4982 9.55607 15.5265 9.45953 15.5728 9.37132C15.6192 9.28312 15.6826 9.205 15.7594 9.14152C15.8362 9.07804 15.9249 9.03046 16.0203 9.00156C16.1157 8.97266 16.2159 8.96301 16.3151 8.97317C16.4142 8.98334 16.5104 9.01311 16.5979 9.06076C16.6854 9.10841 16.7626 9.17298 16.825 9.25073C16.8873 9.32847 16.9335 9.41782 16.961 9.5136C16.9884 9.60937 16.9966 9.70964 16.9849 9.80857C16.8283 11.3161 16.2475 12.7484 15.3098 13.9395C14.3721 15.1305 13.1159 16.0317 11.6868 16.5384C10.2576 17.0452 8.71406 17.1368 7.23494 16.8027C5.75583 16.4685 4.40174 15.7223 3.32958 14.6505C2.25743 13.5787 1.51112 12.2252 1.17713 10.7468C0.843147 9.26845 0.935165 7.72575 1.44252 6.2975C1.94988 4.86926 2.8518 3.61394 4.04377 2.67704C5.23574 1.74013 6.66895 1.15999 8.17731 1.00386C8.37559 0.983704 8.57377 1.04308 8.72826 1.16894C8.88274 1.29479 8.9809 1.47681 9.00114 1.67498ZM10.0234 1.60887C10.0464 1.5128 10.088 1.42219 10.1461 1.34224C10.2041 1.26229 10.2773 1.19455 10.3616 1.14292C10.4458 1.09128 10.5394 1.05675 10.637 1.04132C10.7346 1.02588 10.8343 1.02983 10.9304 1.05294C11.3093 1.14309 11.6791 1.26129 12.0359 1.40353C12.216 1.48073 12.3588 1.62518 12.4339 1.80609C12.509 1.987 12.5104 2.19006 12.4379 2.37201C12.3653 2.55396 12.2246 2.7004 12.0456 2.78013C11.8666 2.85987 11.6635 2.86659 11.4796 2.79886C11.1867 2.68289 10.886 2.58783 10.5796 2.51438C10.3859 2.46782 10.2186 2.34629 10.1145 2.17649C10.0104 2.00669 9.97797 1.80253 10.0244 1.60887H10.0234ZM16.585 5.94912C16.5112 5.76396 16.3669 5.61566 16.1837 5.53686C16.0006 5.45806 15.7936 5.4552 15.6083 5.52892C15.423 5.60264 15.2747 5.7469 15.1958 5.92996C15.117 6.11302 15.1141 6.31989 15.1879 6.50505C15.3031 6.79554 15.3993 7.09604 15.4735 7.40456C15.52 7.59836 15.6417 7.76575 15.8117 7.86991C15.8959 7.92149 15.9894 7.95599 16.0869 7.97144C16.1844 7.9869 16.284 7.983 16.38 7.95998C16.476 7.93696 16.5666 7.89527 16.6465 7.83728C16.7264 7.77929 16.794 7.70614 16.8456 7.62201C16.8972 7.53788 16.9318 7.44441 16.9472 7.34695C16.9627 7.24948 16.9588 7.14993 16.9358 7.05397C16.8455 6.67775 16.7283 6.30852 16.585 5.94912ZM13.3037 2.89602C13.4346 2.74581 13.6199 2.65373 13.8187 2.64002C14.0176 2.6263 14.2137 2.69209 14.364 2.8229C14.6717 3.09034 14.9594 3.38083 15.224 3.69135C15.3531 3.84317 15.4167 4.04007 15.4006 4.23872C15.3845 4.43737 15.2902 4.62151 15.1383 4.75062C14.9864 4.87973 14.7894 4.94324 14.5906 4.92718C14.3918 4.91112 14.2076 4.8168 14.0784 4.66498C13.8626 4.41138 13.6281 4.17432 13.3769 3.95579C13.2266 3.82494 13.1344 3.63978 13.1207 3.44105C13.107 3.24231 13.1728 3.04626 13.3037 2.89602ZM9.00414 4.72307C9.00414 4.52383 8.92495 4.33274 8.78398 4.19186C8.64302 4.05097 8.45183 3.97182 8.25247 3.97182C8.05312 3.97182 7.86193 4.05097 7.72096 4.19186C7.58 4.33274 7.5008 4.52383 7.5008 4.72307V9.73145C7.5008 10.1471 7.83755 10.4827 8.25247 10.4827H11.2592C11.4585 10.4827 11.6497 10.4036 11.7907 10.2627C11.9316 10.1218 12.0108 9.93069 12.0108 9.73145C12.0108 9.5322 11.9316 9.34112 11.7907 9.20023C11.6497 9.05934 11.4585 8.98019 11.2592 8.98019H9.00414V4.72307Z" stroke="white" stroke-width="0.4" mask="url(#path-1-outside-1_243_117)"/>
</svg>
