<svg width="17" height="23" viewBox="0 0 17 23" fill="none" xmlns="http://www.w3.org/2000/svg">
<mask id="path-1-outside-1_243_121" maskUnits="userSpaceOnUse" x="3.53833" y="0.291687" width="10" height="11" fill="black">
<rect fill="white" x="3.53833" y="0.291687" width="10" height="11"/>
<path d="M8.66639 10.8195C9.48284 10.8195 10.281 10.5401 10.9598 10.0166C11.6387 9.49314 12.1678 8.74913 12.4802 7.87864C12.7927 7.00815 12.8744 6.05029 12.7151 5.12619C12.5558 4.20209 12.1627 3.35324 11.5854 2.687C11.008 2.02076 10.2725 1.56704 9.47173 1.38323C8.67097 1.19941 7.84095 1.29375 7.08665 1.65432C6.33234 2.01489 5.68763 2.62549 5.23403 3.4089C4.78044 4.19232 4.53833 5.11337 4.53833 6.05558C4.53833 7.31904 4.97325 8.53075 5.74741 9.42416C6.52157 10.3176 7.57156 10.8195 8.66639 10.8195ZM8.66639 2.6528C9.24957 2.6528 9.81965 2.85237 10.3045 3.22627C10.7894 3.60017 11.1674 4.13161 11.3905 4.75339C11.6137 5.37517 11.6721 6.05935 11.5583 6.71943C11.4446 7.3795 11.1637 7.98582 10.7514 8.4617C10.339 8.93759 9.81361 9.26168 9.24163 9.39297C8.66966 9.52427 8.07679 9.45688 7.538 9.19933C6.99921 8.94179 6.5387 8.50564 6.21471 7.94606C5.89071 7.38648 5.71777 6.72858 5.71777 6.05558C5.71777 5.1531 6.02843 4.2876 6.5814 3.64945C7.13437 3.01131 7.88437 2.6528 8.66639 2.6528Z"/>
</mask>
<path d="M8.66639 10.8195C9.48284 10.8195 10.281 10.5401 10.9598 10.0166C11.6387 9.49314 12.1678 8.74913 12.4802 7.87864C12.7927 7.00815 12.8744 6.05029 12.7151 5.12619C12.5558 4.20209 12.1627 3.35324 11.5854 2.687C11.008 2.02076 10.2725 1.56704 9.47173 1.38323C8.67097 1.19941 7.84095 1.29375 7.08665 1.65432C6.33234 2.01489 5.68763 2.62549 5.23403 3.4089C4.78044 4.19232 4.53833 5.11337 4.53833 6.05558C4.53833 7.31904 4.97325 8.53075 5.74741 9.42416C6.52157 10.3176 7.57156 10.8195 8.66639 10.8195ZM8.66639 2.6528C9.24957 2.6528 9.81965 2.85237 10.3045 3.22627C10.7894 3.60017 11.1674 4.13161 11.3905 4.75339C11.6137 5.37517 11.6721 6.05935 11.5583 6.71943C11.4446 7.3795 11.1637 7.98582 10.7514 8.4617C10.339 8.93759 9.81361 9.26168 9.24163 9.39297C8.66966 9.52427 8.07679 9.45688 7.538 9.19933C6.99921 8.94179 6.5387 8.50564 6.21471 7.94606C5.89071 7.38648 5.71777 6.72858 5.71777 6.05558C5.71777 5.1531 6.02843 4.2876 6.5814 3.64945C7.13437 3.01131 7.88437 2.6528 8.66639 2.6528Z" fill="white"/>
<path d="M8.66639 10.8195C9.48284 10.8195 10.281 10.5401 10.9598 10.0166C11.6387 9.49314 12.1678 8.74913 12.4802 7.87864C12.7927 7.00815 12.8744 6.05029 12.7151 5.12619C12.5558 4.20209 12.1627 3.35324 11.5854 2.687C11.008 2.02076 10.2725 1.56704 9.47173 1.38323C8.67097 1.19941 7.84095 1.29375 7.08665 1.65432C6.33234 2.01489 5.68763 2.62549 5.23403 3.4089C4.78044 4.19232 4.53833 5.11337 4.53833 6.05558C4.53833 7.31904 4.97325 8.53075 5.74741 9.42416C6.52157 10.3176 7.57156 10.8195 8.66639 10.8195ZM8.66639 2.6528C9.24957 2.6528 9.81965 2.85237 10.3045 3.22627C10.7894 3.60017 11.1674 4.13161 11.3905 4.75339C11.6137 5.37517 11.6721 6.05935 11.5583 6.71943C11.4446 7.3795 11.1637 7.98582 10.7514 8.4617C10.339 8.93759 9.81361 9.26168 9.24163 9.39297C8.66966 9.52427 8.07679 9.45688 7.538 9.19933C6.99921 8.94179 6.5387 8.50564 6.21471 7.94606C5.89071 7.38648 5.71777 6.72858 5.71777 6.05558C5.71777 5.1531 6.02843 4.2876 6.5814 3.64945C7.13437 3.01131 7.88437 2.6528 8.66639 2.6528Z" stroke="white" stroke-width="0.6" mask="url(#path-1-outside-1_243_121)"/>
<mask id="path-2-outside-2_243_121" maskUnits="userSpaceOnUse" x="0" y="11.183" width="17" height="11" fill="black">
<rect fill="white" y="11.183" width="17" height="11"/>
<path d="M16.0202 15.8352C15.0745 14.6816 13.9348 13.7628 12.6709 13.1349C11.407 12.5069 10.0454 12.183 8.66934 12.183C7.29327 12.183 5.93167 12.5069 4.66775 13.1349C3.40384 13.7628 2.26418 14.6816 1.31845 15.8352C1.11341 16.0879 0.999536 16.4213 1 16.7675V20.3472C1 20.7082 1.12426 21.0544 1.34545 21.3097C1.56664 21.565 1.86664 21.7084 2.17945 21.7084H15.1533C15.4661 21.7084 15.7661 21.565 15.9873 21.3097C16.2085 21.0544 16.3328 20.7082 16.3328 20.3472V16.7675C16.3348 16.4222 16.2231 16.089 16.0202 15.8352ZM15.1533 20.3472H2.17945V16.7607C3.01522 15.7451 4.02132 14.9364 5.13652 14.3837C6.25173 13.8311 7.45271 13.5461 8.66639 13.5461C9.88007 13.5461 11.0811 13.8311 12.1963 14.3837C13.3115 14.9364 14.3176 15.7451 15.1533 16.7607V20.3472Z"/>
</mask>
<path d="M16.0202 15.8352C15.0745 14.6816 13.9348 13.7628 12.6709 13.1349C11.407 12.5069 10.0454 12.183 8.66934 12.183C7.29327 12.183 5.93167 12.5069 4.66775 13.1349C3.40384 13.7628 2.26418 14.6816 1.31845 15.8352C1.11341 16.0879 0.999536 16.4213 1 16.7675V20.3472C1 20.7082 1.12426 21.0544 1.34545 21.3097C1.56664 21.565 1.86664 21.7084 2.17945 21.7084H15.1533C15.4661 21.7084 15.7661 21.565 15.9873 21.3097C16.2085 21.0544 16.3328 20.7082 16.3328 20.3472V16.7675C16.3348 16.4222 16.2231 16.089 16.0202 15.8352ZM15.1533 20.3472H2.17945V16.7607C3.01522 15.7451 4.02132 14.9364 5.13652 14.3837C6.25173 13.8311 7.45271 13.5461 8.66639 13.5461C9.88007 13.5461 11.0811 13.8311 12.1963 14.3837C13.3115 14.9364 14.3176 15.7451 15.1533 16.7607V20.3472Z" fill="white"/>
<path d="M16.0202 15.8352C15.0745 14.6816 13.9348 13.7628 12.6709 13.1349C11.407 12.5069 10.0454 12.183 8.66934 12.183C7.29327 12.183 5.93167 12.5069 4.66775 13.1349C3.40384 13.7628 2.26418 14.6816 1.31845 15.8352C1.11341 16.0879 0.999536 16.4213 1 16.7675V20.3472C1 20.7082 1.12426 21.0544 1.34545 21.3097C1.56664 21.565 1.86664 21.7084 2.17945 21.7084H15.1533C15.4661 21.7084 15.7661 21.565 15.9873 21.3097C16.2085 21.0544 16.3328 20.7082 16.3328 20.3472V16.7675C16.3348 16.4222 16.2231 16.089 16.0202 15.8352ZM15.1533 20.3472H2.17945V16.7607C3.01522 15.7451 4.02132 14.9364 5.13652 14.3837C6.25173 13.8311 7.45271 13.5461 8.66639 13.5461C9.88007 13.5461 11.0811 13.8311 12.1963 14.3837C13.3115 14.9364 14.3176 15.7451 15.1533 16.7607V20.3472Z" stroke="white" stroke-width="0.6" mask="url(#path-2-outside-2_243_121)"/>
</svg>
