<svg width="17" height="20" viewBox="0 0 17 20" fill="none" xmlns="http://www.w3.org/2000/svg">
<path d="M8.99497 20C8.4642 20 7.95518 19.7893 7.57987 19.4142C7.20457 19.0391 6.99372 18.5304 6.99372 18H10.9962C10.9962 18.5304 10.7854 19.0391 10.4101 19.4142C10.0348 19.7893 9.52573 20 8.99497 20ZM16.9999 17H0.98999V15L2.99123 14V8.5C2.99123 5.038 4.41312 2.793 6.99372 2.18V0H10.9962V2.18C13.5768 2.792 14.9987 5.036 14.9987 8.5V14L16.9999 15V17ZM8.99497 3.75C8.39402 3.71122 7.79293 3.82362 7.24667 4.07693C6.70042 4.33024 6.22642 4.71636 5.86802 5.2C5.24518 6.18456 4.93958 7.33638 4.99248 8.5V15H12.9975V8.5C13.0503 7.33639 12.7447 6.18458 12.1219 5.2C11.7635 4.71636 11.2895 4.33024 10.7433 4.07693C10.197 3.82362 9.59591 3.71122 8.99497 3.75Z" fill="white"/>
</svg>
